# xmcd
#
# Track frame offsets: 
#        150
#        18770
#        41095
#        59485
#        77610
#        99265
#        119700
#        135335
#        151365
#        171480
#
# Disc length: 2543 seconds
#
# Revision: 3
# Processed by: cddbd v1.5.2PL0 Copyright (c) Steve Scherf et al.
# Submitted via: ExactAudioCopyFreeDBPlugin 1.0
#
DISCID=7c09ed0a
DTITLE=Susie Hansen - The Salsa Never Ends
DYEAR=2002
DGENRE=Latin Jazz
TTITLE0=I Want To Know
TTITLE1=La Salsa Nunca Se Acaba
TTITLE2=Blues Con Fuego
TTITLE3=Que Pase La Tormenta
TTITLE4=Cha Cha Con Mana
TTITLE5=La Pregunta
TTITLE6=With Each Beat Of My Heart
TTITLE7=Alibi
TTITLE8=Elegua
TTITLE9=Tambo
EXTD=YEAR: 2002
EXTT0=
EXTT1=
EXTT2=
EXTT3=
EXTT4=
EXTT5=
EXTT6=
EXTT7=
EXTT8=
EXTT9=
PLAYORDER=
